<?xml version="1.0" standalone="no"?>
<!DOCTYPE svg PUBLIC "-//W3C//DTD SVG 20010904//EN"
 "http://www.w3.org/TR/2001/REC-SVG-20010904/DTD/svg10.dtd">
<svg version="1.0" xmlns="http://www.w3.org/2000/svg"
 width="500.000000pt" height="500.000000pt" viewBox="0 0 500.000000 500.000000"
 preserveAspectRatio="xMidYMid meet">
<metadata>
Created by potrace 1.14, written by Peter Selinger 2001-2017
</metadata>
<g transform="translate(0.000000,500.000000) scale(0.100000,-0.100000)"
fill="#000000" stroke="none">
<path d="M2266 4989 c-497 -53 -944 -234 -1336 -543 -116 -91 -326 -309 -421
-436 -286 -380 -456 -815 -500 -1280 -15 -159 -6 -432 20 -605 61 -411 226
-799 483 -1142 95 -127 346 -378 471 -472 261 -195 562 -344 861 -425 439
-121 964 -112 1388 24 416 133 736 326 1033 624 213 214 359 419 486 681 175
362 244 671 243 1080 0 300 -28 490 -110 752 -119 386 -328 728 -623 1024
-414 413 -939 658 -1540 719 -118 11 -339 11 -455 -1z m1124 -749 l0 -90 -42
0 c-53 0 -141 -23 -174 -45 -62 -40 -58 26 -65 -1290 -6 -1273 -4 -1224 -53
-1410 -54 -210 -184 -403 -339 -503 -166 -108 -400 -158 -626 -133 -126 14
-191 32 -297 82 -158 75 -272 186 -339 333 -43 93 -58 174 -53 288 3 78 9 104
35 159 73 157 197 235 361 228 134 -7 240 -80 301 -209 34 -72 41 -203 16
-280 -33 -99 -132 -170 -292 -210 -24 -6 -43 -14 -43 -19 0 -16 59 -89 92
-115 122 -92 339 -103 467 -22 99 63 174 182 219 345 l27 96 3 1265 c2 960 0
1275 -9 1308 -7 24 -24 56 -40 71 -31 31 -122 61 -187 61 l-42 0 0 90 0 90
540 0 540 0 0 -90z"/>
</g>
</svg>
